<svg height="66" viewBox="0 0 299 66" width="299" xmlns="http://www.w3.org/2000/svg" xmlns:xlink="http://www.w3.org/1999/xlink"><mask id="a" fill="#fff"><path d="m73.9902946 65.5970703h-73.9902946v-65.5970703h36.9951473 36.9951473z" fill="#fff" fill-rule="evenodd"/></mask><g fill="#1d96f3" fill-rule="evenodd"><path d="m199 28.4428662c0-3.959397 1.258548-7.4523773 4.057825-10.2619932 2.918046-2.9285871 6.570825-4.180873 10.669196-4.180873 2.129661 0 4.197481.3939637 6.144893 1.2703992 2.254575 1.014755 3.996392 2.6622396 3.996392 5.2812544v3.5485551h-6.221069v-2.3024441c0-.6232613-.684359-1.0011701-1.171724-1.2205877-.873161-.3939637-1.795059-.5718031-2.748492-.5718031-2.209934 0-4.11721.6953027-5.662034 2.3003858-1.625096 1.6865928-2.26727 3.7770293-2.26727 6.0947051 0 2.3950689.699102 4.4974437 2.455663 6.149045 1.606257 1.5099884 3.528277 2.1694762 5.719371 2.1694762 2.947534 0 5.388454-1.0620965 7.351019-3.2801493l.783879-.8863154 3.079 5.0725401-.398493.4812368c-2.839412 3.4476971-6.782972 4.7893143-11.162704 4.7893143-4.047586 0-7.652038-1.2440526-10.540187-4.1290032-2.82426-2.8219658-4.085265-6.338411-4.085265-10.323743"/><path d="m243.923337 35.0486582c-1.089735 1.4403053-2.45985 2.1715436-4.281916 2.1715436-1.112964 0-2.190473-.3177869-3.010831-1.1167704-.628411-.615866-.91735-1.0781761-.91735-1.9609174 0-3.9723358 6.909262-3.8298655 9.519491-3.8298655h.387968c0 1.2317321-.573394 3.2468457-1.697362 4.7360097zm8.537752 1.0116626c-.050534 0-.320319.0784203-.36637.0509116-.027712-.0459847-.168309-.0993597-.168309-.1502713v-10.9689844c0-7.4708654-4.006834-10.9919767-11.265757-10.9919767-1.906425 0-3.526356.2442935-5.329268.8921846-2.23734.8059633-3.78147 2.2717244-3.78147 4.8411175v4.4206862h6.520478v-3.3478476c0-1.1089694 2.350225-1.1225185 3.010016-1.1225185 1.208326 0 2.672988.4766803 3.558551 1.4115649.803241.8494845.874559 3.0588012.92713 3.8799559h-.231884c-6.50214 0-16.334206.8240288-16.334206 9.3944203 0 2.6482239.965438 4.719176 3.016944 6.3910469 1.891754 1.5433603 4.137243 2.1350022 6.560009 2.1350022 2.703145 0 5.068041-.9336528 6.997696-2.8621346.145488-.145755.288531-.305059.429944-.4590255.425868 1.7802634 1.864041 2.6445287 3.932663 2.6445287h5.249393v-6.1586602z"/><path d="m134.854448 35.0486582c-1.084704 1.4403053-2.448495 2.1715436-4.26215 2.1715436-1.107827 0-2.180362-.3177869-2.996933-1.1167704-.62551-.615866-.912709-1.0781761-.912709-1.9609174 0-3.9723358 6.876962-3.8298655 9.475141-3.8298655h.386178c0 1.2317321-.570748 3.2468457-1.689527 4.7360097zm8.498339 1.0116626c-.0503 0-.258398.0784203-.304236.0509116-.027179-.0459847-.107091-.0993597-.107091-.1502713v-10.9689844c0-7.4708654-4.04878-10.9919767-11.274193-10.9919767-1.897625 0-3.48006.2442935-5.274244.8921846-2.227011.8059633-3.733996 2.2717244-3.733996 4.8411175v4.4206862h6.490378v-3.3478476c0-1.1089694 2.278934-1.1225185 2.93568-1.1225185 1.202748 0 2.630226.4766803 3.5117 1.4115649.799534.8494845.840504 3.0588012.892833 3.8799559h-.230814c-6.472125 0-16.258804.8240288-16.258804 9.3944203 0 2.6482239.960982 4.719176 3.003017 6.3910469 1.883021 1.5433603 4.118145 2.1350022 6.529726 2.1350022 2.690668 0 5.044647-.9336528 6.965393-2.8621346.144817-.145755.2872-.305059.42796-.4590255.423903 1.7802634 1.855437 2.6445287 3.914509 2.6445287h5.346044v-6.1586602z"/><path d="m267.617295 17.7938646c1.578071-2.3529375 3.903714-3.7938646 7.183238-3.7938646.487863 0 .973299.0457241 1.452667.133053l.709546.1289337v6.7597524l-1.06351-.2591033c-.399675-.098039-.828477-.1301695-1.241097-.1301695-1.423137 0-2.65574.4934908-3.754847 1.4079728-1.27872 1.0636003-2.093038 2.4765162-2.569979 4.0739763-.420711 1.40097-.548543 2.9358168-.548543 4.3956926v11.4825166h-6.616087v-21.4112375c0-.0510791.004045-.1779532-.023058-.2249131-.045712-.0263635-.169498-.02348-.21966-.02348h-2.925965v-6.008806h5.483808c2.362859 0 3.961966 1.1122079 4.133487 3.4696766"/><path d="m284.450406 20.7807508h-3.450406v-5.6987497h3.554938v-7.0820011h6.786585v7.0820011h6.35286v5.6987497h-6.35286v10.9501938c0 3.1994848 1.312975 4.9199547 4.708586 4.9199547.327084 0 .693369-.0118681 1.011602-.0814399l1.095059-.2353164v6.2168551l-.765446.1121334c-.630565.0912618-1.299908.1019022-1.934688.1019022-2.383588 0-4.758323-.4501705-6.779841-1.7257901-3.144818-1.9872983-4.226389-5.2354834-4.226389-8.7566355z"/><path d="m99.3947146 33.5685112c1.8676704 2.3143824 4.2450844 3.5263252 7.2510294 3.5263252 1.807234 0 3.662817-.3268623 3.662817-2.4485854 0-.9007237-1.067418-1.5993198-1.765971-1.9776402-1.380017-.7442909-3.384397-1.4696452-4.854443-2.0871432-3.609884-1.5165751-7.6749119-4.08866-7.6749119-8.4346108 0-2.6078999 1.0578325-4.7357979 3.2456034-6.2194398 2.1598455-1.4642935 4.8110955-1.927417 7.3869055-1.927417 2.002296 0 4.005842.3021623 5.849755 1.0966764 2.104828.9064871 3.643228 2.4292371 3.643228 4.7975477v3.3357241h-6.27864v-2.1587729c0-.4417169-.504742-.714651-.856102-.8731422-.698553-.3173939-1.443787-.4495385-2.210278-.4495385-1.572161 0-3.991672.1589028-3.991672 2.2011745 0 .9468302 1.045746 1.6318413 1.787646 2.0266284 1.35876.7245309 3.370642 1.4260087 4.817764 2.0064568 3.714501 1.4902284 7.715758 4.0182652 7.715758 8.4420208 0 2.557265-1.051163 4.6518181-3.100974 6.214088-2.15026 1.642133-4.744408 2.2567493-7.428168 2.2567493-4.447648 0-8.4630769-1.3280323-11.1910177-4.9243406l-.4030433-.5326949 3.685325-4.7485595z"/><path d="m158.652833 17.810525c.583494-.6822996 1.260444-1.2883805 2.011752-1.8251718 1.768359-1.2631101 3.749636-1.9853532 5.926765-1.9853532 3.808148 0 6.598026 1.4844296 7.947863 4.685613.769593-1.0858101 1.738696-2.0085857 2.865456-2.7781088 1.826871-1.2463991 3.853657-1.9075042 6.062074-1.9075042 6.717894 0 9.305825 4.3864446 9.305825 10.6938437v11.1071363c0 .0505407-.004063.1768924.023161.2225421.046322.0273083.17066.0232324.221045.0232324h2.938596v5.9458701h-5.725224c-2.637504 0-4.100707-1.4677186-4.100707-4.1133617v-12.1216188c0-1.2190908-.092644-3.0377412-.706612-4.1259968-.624127-1.1114881-1.693187-1.4404103-2.915841-1.4404103-1.557879 0-2.851642.646432-3.958491 1.729389-1.199493 1.172626-1.980464 2.5812445-2.381921 4.2132203-.264929 1.0727674-.371388 2.1785492-.371388 3.2814779v12.5773004h-6.644348v-16.2349805c0-1.1999343-.077609-2.9733426-.63591-4.062821-.589588-1.1514315-1.641989-1.5035861-2.883335-1.5035861-1.618016 0-2.963382.6329817-4.103958 1.7725932-1.212902 1.2137922-1.961366 2.7279756-2.383952 4.3811459-.250301.9847287-.317346 2.0570884-.317346 3.0703481v12.5773004h-6.643535v-21.1855246c0-.0505407.004063-.1760773-.023161-.2225421-.046322-.0260856-.171066-.0232325-.221857-.0232325h-2.937784v-5.9454624h5.548876c2.25677 0 3.894696.9749466 4.103957 3.194662"/><path d="m10.5138886 48.5c2.4933781 0 4.5159903 2.0216335 4.5159903 4.5157802 0 2.4924652-2.0226122 4.5140987-4.5159903 4.5140987-2.49337806 0-4.5138886-2.0216335-4.5138886-4.5140987 0-2.4941467 2.02051054-4.5157802 4.5138886-4.5157802"/><path d="m69.3421876 45c2.3992043 0 4.3442099 1.9567915 4.3442099 4.3709407 0 2.4125217-1.9450056 4.3693132-4.3442099 4.3693132-2.3992042 0-4.3421876-1.9567915-4.3421876-4.3693132 0-2.4141492 1.9429834-4.3709407 4.3421876-4.3709407" mask="url(#a)"/><path d="m39.3268185 57c2.389093 0 4.3256051 1.9494672 4.3256051 4.3530371 0 2.4031629-1.9365121 4.3526301-4.3256051 4.3526301-2.3903064 0-4.3268185-1.9494672-4.3268185-4.3526301 0-2.4035699 1.9365121-4.3530371 4.3268185-4.3530371" mask="url(#a)"/><path d="m39.9440007 23.604789-34.17369605-9.7005425 28.96032065-10.48993224 6.636639 1.99463336-.1221442 14.46292288 28.066888-9.801861-35.0553996-10.0700095-34.2566085 12.2058378v3.4851152l6.47121851 2.1777392v23.9583868l33.34538009 10.0915753 34.1979631-13.5766905v-26.5796491z" mask="url(#a)"/><path d="m38.928913 19.5933244.0972782-12.06025995-3.5713808-1.03306445-19.4548104 6.7948608z"/></g></svg>